<svg version="1.1" id="Layer_1" xmlns="http://www.w3.org/2000/svg" xmlns:xlink="http://www.w3.org/1999/xlink" x="0px" y="0px"
	 width="100%" viewBox="0 0 1942 208" enable-background="new 0 0 1942 208" xml:space="preserve">
<path fill="#141927" opacity="1.000000" stroke="none" 
	d="
M1462.000000,209.000000 
	C974.723145,209.000000 487.946320,209.000000 1.084746,209.000000 
	C1.084746,139.731308 1.084746,70.462463 1.084746,1.096815 
	C648.333313,1.096815 1295.666626,1.096815 1942.971680,1.096815 
	C1942.971680,70.387299 1942.971680,139.693665 1942.971680,209.000000 
	C1782.795532,209.000000 1622.647705,209.000000 1462.000000,209.000000 
M573.135925,156.553650 
	C573.779541,154.322601 574.818542,152.122879 574.998230,149.855057 
	C575.772156,140.088440 576.703979,130.306885 576.824036,120.521507 
	C577.091553,98.712952 576.907593,76.898857 576.907593,54.864243 
	C566.099365,54.864243 555.571716,54.864243 544.649597,54.864243 
	C544.649597,58.460339 544.649597,61.699970 544.649597,65.207062 
	C521.982483,48.099064 496.428375,49.267857 478.940002,67.893997 
	C463.397095,84.448059 463.124756,112.919533 478.449005,130.621704 
	C486.627808,140.069626 497.431122,144.403564 509.566559,145.647369 
	C521.939880,146.915558 533.261780,144.294205 542.690308,135.233246 
	C544.032227,151.349991 536.010071,160.400742 520.506409,161.010239 
	C507.515503,161.520935 495.451965,158.824783 484.712921,150.814529 
	C480.538513,158.900803 476.589783,166.549942 472.459778,174.550262 
	C474.966675,176.048721 477.118317,177.631516 479.498383,178.710388 
	C497.964539,187.080902 517.320496,188.913971 537.105225,185.523193 
	C553.963562,182.633911 566.567139,173.790863 573.135925,156.553650 
M733.455017,43.033710 
	C722.350159,33.040974 708.846680,27.967133 694.400085,27.289747 
	C671.632690,26.222210 648.790710,26.741711 625.980225,26.614859 
	C625.712219,26.613369 625.442444,26.951517 625.096191,27.182755 
	C625.096191,36.095081 625.096191,45.053417 625.096191,54.503746 
	C627.060120,54.503746 628.861084,54.493378 630.661926,54.505344 
	C649.479858,54.630405 668.308411,54.414143 687.112671,54.988930 
	C704.081421,55.507610 715.495361,67.392914 717.488098,85.464767 
	C719.358765,102.428993 710.407410,117.399498 694.374451,120.818169 
	C683.360840,123.166573 671.757996,122.751732 659.877319,123.611176 
	C659.877319,111.487267 659.877319,100.747917 659.877319,90.133591 
	C647.999084,90.133591 636.592896,90.133591 625.159241,90.133591 
	C625.159241,110.506615 625.159241,130.577530 625.159241,151.000717 
	C643.352478,151.000717 661.308899,151.186279 679.258301,150.913162 
	C686.881897,150.797180 694.627747,150.416000 702.081116,148.950378 
	C725.633057,144.319107 743.550354,131.891541 750.293213,108.037376 
	C757.120850,83.883095 753.295837,61.503368 733.455017,43.033710 
M1814.737549,92.749657 
	C1805.507080,71.953384 1796.217896,51.182770 1787.114868,30.330828 
	C1785.876343,27.493490 1784.466309,26.327505 1781.275391,26.413532 
	C1772.615234,26.647018 1763.937622,26.694658 1755.281372,26.397470 
	C1751.673828,26.273615 1750.125854,27.586964 1748.732422,30.780899 
	C1735.912842,60.160324 1722.904785,89.457458 1709.956177,118.780571 
	C1705.280273,129.369370 1700.616821,139.963623 1695.750732,151.002045 
	C1706.007935,151.002045 1715.664551,150.639954 1725.274658,151.150360 
	C1730.297729,151.417130 1732.362915,149.726791 1734.144287,145.166580 
	C1745.003662,117.365639 1756.215576,89.702385 1767.658325,61.123276 
	C1769.618774,65.831841 1771.306885,69.757233 1772.895264,73.722504 
	C1782.650879,98.076706 1792.354858,122.451668 1802.190674,146.773315 
	C1802.839233,148.377060 1804.405029,150.779648 1805.598022,150.811829 
	C1816.998535,151.119293 1828.410522,150.995529 1840.462646,150.995529 
	C1831.772339,131.359283 1823.386719,112.411179 1814.737549,92.749657 
M368.915375,56.309685 
	C364.666870,58.762337 360.418365,61.214985 355.759399,63.904583 
	C355.759399,60.867592 355.759399,57.964161 355.759399,54.869522 
	C344.771515,54.869522 334.238342,54.869522 323.631226,54.869522 
	C323.631226,87.013985 323.631226,118.775330 323.631226,150.696716 
	C334.897217,150.696716 345.940552,150.696716 357.164734,150.696716 
	C357.164734,137.076569 357.098572,123.763809 357.201691,110.452354 
	C357.236389,105.971931 357.320465,101.432106 358.045959,97.028824 
	C359.751221,86.678734 367.421234,80.940590 377.941620,81.681190 
	C386.875366,82.310104 391.807922,88.033577 392.000488,98.940231 
	C392.273834,114.426071 392.140717,129.919083 392.179932,145.409042 
	C392.184418,147.178421 392.180542,148.947830 392.180542,150.647858 
	C403.838409,150.647858 414.890991,150.647858 425.962769,150.647858 
	C425.962769,131.139008 426.234894,111.982361 425.865051,92.838112 
	C425.626862,80.510658 422.500122,68.942642 411.872742,61.148109 
	C398.845215,51.593170 384.540619,50.970993 368.915375,56.309685 
M1337.870361,77.845268 
	C1332.960205,63.719791 1322.869141,56.034359 1308.271484,53.688656 
	C1294.041504,51.402042 1281.474854,55.051754 1269.879517,64.820999 
	C1269.879517,60.788376 1269.879517,57.844219 1269.879517,54.739059 
	C1259.138428,54.739059 1248.704712,54.739059 1238.166016,54.739059 
	C1238.166016,86.884262 1238.166016,118.784874 1238.166016,150.789337 
	C1249.356079,150.789337 1260.281006,150.789337 1271.471680,150.789337 
	C1271.555420,149.638535 1271.685303,148.678207 1271.686157,147.717743 
	C1271.699219,133.887085 1271.494629,120.051956 1271.802612,106.228134 
	C1271.911743,101.326683 1272.534912,96.187721 1274.204956,91.626358 
	C1276.941406,84.152557 1285.112183,80.555519 1294.067749,81.826683 
	C1300.998047,82.810364 1305.209106,87.717545 1306.173462,96.180214 
	C1306.531128,99.316803 1306.699219,102.490639 1306.710693,105.648361 
	C1306.764771,120.607857 1306.734863,135.567642 1306.734863,150.684509 
	C1318.133789,150.684509 1329.185791,150.684509 1340.151489,150.684509 
	C1340.151489,130.709610 1340.272949,111.050423 1340.055664,91.394966 
	C1340.008545,87.134537 1338.744263,82.887573 1337.870361,77.845268 
M1139.256348,151.993729 
	C1147.578125,150.773270 1154.551025,147.183884 1160.083740,139.083618 
	C1160.083740,143.744141 1160.083740,147.137024 1160.083740,150.761871 
	C1170.724731,150.761871 1180.966919,150.761871 1190.793945,150.761871 
	C1190.793945,129.328598 1191.827515,107.998528 1190.460449,86.823425 
	C1189.404785,70.471893 1178.730103,60.154835 1162.936646,55.684597 
	C1150.689819,52.218216 1138.285767,52.318661 1125.831909,54.628899 
	C1116.632935,56.335327 1107.764771,58.830269 1099.958618,64.436920 
	C1103.790161,72.057907 1107.510742,79.458481 1111.245239,86.886780 
	C1120.576416,80.630882 1130.559814,78.193192 1141.371094,79.006889 
	C1151.465210,79.766594 1156.777100,84.687744 1157.369629,93.996506 
	C1152.366211,93.996506 1147.343872,93.633354 1142.393188,94.074928 
	C1133.160889,94.898438 1123.748291,95.295013 1114.817993,97.511063 
	C1103.426147,100.337975 1096.330811,110.037605 1095.924194,120.604599 
	C1095.399414,134.238663 1100.973877,143.470398 1112.477417,148.605240 
	C1120.820923,152.329514 1129.494629,152.860016 1139.256348,151.993729 
M1582.773315,55.681412 
	C1570.447998,51.873463 1558.023560,51.950569 1545.944458,56.134270 
	C1527.634888,62.475967 1515.925903,75.265366 1513.161377,94.639633 
	C1510.236206,115.140587 1516.752319,132.171082 1534.944092,143.483734 
	C1552.523071,154.415390 1571.401978,154.824066 1590.704468,149.298279 
	C1598.250244,147.138092 1604.726318,142.948853 1610.503418,136.470016 
	C1603.983398,130.476807 1597.890381,124.876144 1591.647339,119.137619 
	C1581.116455,127.422859 1569.171875,129.324371 1556.491333,123.657509 
	C1551.431396,121.396286 1547.755615,117.426224 1547.001709,110.936096 
	C1570.386719,110.936096 1593.313599,110.936096 1616.161621,110.936096 
	C1620.705933,86.033485 1607.487671,63.944378 1582.773315,55.681412 
M882.471436,108.126465 
	C889.296387,110.076210 896.059998,112.289185 902.964539,113.897064 
	C909.104248,115.326828 915.465515,115.817505 921.586243,117.308670 
	C923.364807,117.741982 925.780212,120.136902 925.855530,121.729523 
	C925.934570,123.400612 923.743713,125.392845 922.174011,126.843437 
	C921.312500,127.639587 919.683289,127.911301 918.405457,127.898537 
	C912.428406,127.838829 906.312012,128.341522 900.511902,127.239899 
	C892.658264,125.748230 885.047791,122.976349 877.090942,120.683929 
	C874.075623,127.565475 870.836853,134.956985 867.457520,142.669281 
	C869.967957,143.889374 871.980408,145.028015 874.108643,145.876190 
	C889.608948,152.053574 905.811646,153.878433 922.148499,151.549088 
	C929.846680,150.451447 937.713013,147.670975 944.542114,143.908585 
	C961.278259,134.688019 962.793884,109.250465 946.556396,99.347404 
	C942.537781,96.896492 937.838989,95.237007 933.232117,94.144180 
	C924.505920,92.074181 915.565552,90.906960 906.838928,88.838463 
	C904.692017,88.329575 903.025269,85.794960 901.137817,84.191628 
	C902.894043,82.205856 904.307129,79.189575 906.483337,78.464851 
	C910.166504,77.238235 914.448547,76.668968 918.271118,77.232475 
	C927.037720,78.524796 935.679077,80.666626 944.919739,82.576958 
	C947.727112,76.269432 951.003174,68.909050 954.824158,60.324249 
	C947.296570,58.253098 940.437500,55.777428 933.361938,54.538883 
	C917.551086,51.771278 901.848999,51.997425 886.937500,59.051548 
	C863.596252,70.093483 865.057739,99.147011 882.471436,108.126465 
M90.500031,123.000053 
	C82.727005,123.000053 74.953979,123.000053 66.730103,123.000053 
	C66.730103,90.582321 66.730103,58.694046 66.730103,26.832787 
	C54.862083,26.832787 43.459782,26.832787 32.024849,26.832787 
	C32.024849,68.354424 32.024849,109.545143 32.024849,150.674530 
	C63.565197,150.674530 94.786484,150.674530 125.794037,150.674530 
	C125.794037,141.283966 125.794037,132.221497 125.794037,123.000053 
	C114.126602,123.000053 102.813301,123.000053 90.500031,123.000053 
M1473.371094,83.913307 
	C1476.155762,82.456985 1478.940430,81.000656 1481.820679,79.494324 
	C1478.189087,70.225479 1472.003540,63.541218 1463.367676,59.145615 
	C1448.124878,51.387283 1432.174438,51.184849 1416.285645,56.140797 
	C1397.470825,62.009468 1385.011719,74.582428 1382.186523,94.506821 
	C1379.225830,115.387711 1386.059814,132.478516 1404.595215,144.033691 
	C1417.721802,152.216919 1432.113403,153.784424 1446.895630,151.658707 
	C1462.716431,149.383652 1475.180176,141.797653 1481.933716,125.992561 
	C1473.166992,121.545250 1464.641724,117.220444 1455.961060,112.816765 
	C1455.049072,114.214661 1454.358887,115.324738 1453.617920,116.399826 
	C1448.413452,123.950951 1440.582886,127.151611 1431.957275,125.304932 
	C1422.884766,123.362572 1417.980957,117.361061 1416.270630,108.646996 
	C1415.639648,105.432388 1415.783813,102.000717 1416.003296,98.696564 
	C1416.592285,89.832031 1422.101196,83.039284 1430.185059,80.833969 
	C1439.804565,78.209709 1447.588013,80.799316 1453.087646,88.452980 
	C1454.029907,89.764305 1454.974243,91.073975 1456.081299,92.611481 
	C1461.763306,89.722649 1467.218140,86.949364 1473.371094,83.913307 
M1046.484619,57.998146 
	C1042.700806,57.998146 1038.917114,57.998146 1034.701416,57.998146 
	C1034.701416,49.412170 1034.701416,41.336639 1034.701416,33.360992 
	C1023.190796,33.360992 1012.136292,33.360992 1000.846313,33.360992 
	C1000.846313,41.675697 1000.846313,49.629070 1000.846313,57.988354 
	C996.205322,57.988354 991.788330,57.988354 987.298706,57.988354 
	C987.298706,66.616837 987.298706,74.828697 987.298706,83.304031 
	C991.917908,83.304031 996.208008,83.304031 1000.997070,83.304031 
	C1000.997070,85.167198 1000.994568,86.788353 1000.997437,88.409492 
	C1001.015442,98.574066 1000.789368,108.746490 1001.114380,118.901260 
	C1001.538086,132.141373 1006.453247,143.327728 1019.370972,148.444107 
	C1025.981567,151.062378 1033.579468,152.067551 1040.747681,152.138031 
	C1047.237671,152.201843 1053.780029,150.138489 1060.223633,148.679031 
	C1061.339722,148.426224 1063.083252,146.194916 1062.836914,145.413391 
	C1060.523560,138.073425 1057.839966,130.850067 1055.434692,124.075470 
	C1051.429932,124.948196 1048.241455,126.000870 1044.988281,126.269768 
	C1039.853149,126.694237 1035.348633,123.405518 1035.180908,118.416519 
	C1034.791016,106.821205 1035.056641,95.203842 1035.056641,83.081955 
	C1042.435669,83.081955 1049.503296,83.081955 1056.631348,83.081955 
	C1056.631348,74.489357 1056.631348,66.416977 1056.631348,57.998146 
	C1053.401611,57.998146 1050.433472,57.998146 1046.484619,57.998146 
M1910.292358,85.500137 
	C1910.292358,65.935478 1910.292358,46.370815 1910.292358,26.840302 
	C1898.130615,26.840302 1886.721924,26.840302 1875.447266,26.840302 
	C1875.447266,68.407303 1875.447266,109.624985 1875.447266,150.713043 
	C1887.235107,150.713043 1898.667847,150.713043 1910.292358,150.713043 
	C1910.292358,129.115891 1910.292358,107.808022 1910.292358,85.500137 
M828.742859,141.444473 
	C828.742859,112.580673 828.742859,83.716873 828.742859,54.740288 
	C817.089905,54.740288 806.170837,54.740288 795.142090,54.740288 
	C795.142090,86.869637 795.142090,118.743515 795.142090,150.671051 
	C806.395630,150.671051 817.423279,150.671051 828.742798,150.671051 
	C828.742798,147.701218 828.742798,145.063248 828.742859,141.444473 
M265.210449,125.742516 
	C287.036316,107.745430 286.315887,83.355141 263.445892,66.793427 
	C253.794662,59.804317 242.873550,55.983368 231.169388,54.418602 
	C209.042847,51.460438 188.260056,54.836727 170.358444,69.048355 
	C150.973099,84.437874 150.518906,107.936691 169.403091,123.822578 
	C173.885498,127.593292 174.328766,130.532745 171.938675,135.385986 
	C169.444458,140.450653 167.751160,145.909744 165.190338,152.534958 
	C174.766159,147.509705 182.775681,143.105927 190.992767,139.131241 
	C193.122650,138.100998 196.021301,137.773636 198.365143,138.209061 
	C222.019196,142.603516 244.421890,140.499039 265.210449,125.742516 
M793.522095,34.751202 
	C799.126831,42.852188 807.048523,44.992001 816.286072,43.400272 
	C826.151123,41.700397 832.069397,35.117718 832.237610,25.936365 
	C832.401123,17.016329 826.883545,10.468480 816.953186,8.508499 
	C808.662659,6.872191 800.862854,8.304412 795.091064,14.971196 
	C790.135986,20.694708 789.939270,27.332235 793.522095,34.751202 
z"/>
<path fill="#FDFDFD" opacity="1.000000" stroke="none" 
	d="
M573.037598,156.932129 
	C566.567139,173.790863 553.963562,182.633911 537.105225,185.523193 
	C517.320496,188.913971 497.964539,187.080902 479.498383,178.710388 
	C477.118317,177.631516 474.966675,176.048721 472.459778,174.550262 
	C476.589783,166.549942 480.538513,158.900803 484.712921,150.814529 
	C495.451965,158.824783 507.515503,161.520935 520.506409,161.010239 
	C536.010071,160.400742 544.032227,151.349991 542.690308,135.233246 
	C533.261780,144.294205 521.939880,146.915558 509.566559,145.647369 
	C497.431122,144.403564 486.627808,140.069626 478.449005,130.621704 
	C463.124756,112.919533 463.397095,84.448059 478.940002,67.893997 
	C496.428375,49.267857 521.982483,48.099064 544.649597,65.207062 
	C544.649597,61.699970 544.649597,58.460339 544.649597,54.864243 
	C555.571716,54.864243 566.099365,54.864243 576.907593,54.864243 
	C576.907593,76.898857 577.091553,98.712952 576.824036,120.521507 
	C576.703979,130.306885 575.772156,140.088440 574.998230,149.855057 
	C574.818542,152.122879 573.779541,154.322601 573.037598,156.932129 
M532.210083,117.001701 
	C538.154175,113.889221 542.168762,109.246284 543.036072,102.453392 
	C544.895325,87.891106 533.702271,77.817368 518.273254,80.026520 
	C508.779572,81.385841 501.949158,88.675232 501.292908,98.147896 
	C500.648163,107.454651 506.530853,116.176231 515.930603,117.930275 
	C520.903503,118.858238 526.288818,117.575401 532.210083,117.001701 
z"/>
<path fill="#FEFEFE" opacity="1.000000" stroke="none" 
	d="
M733.720947,43.267368 
	C753.295837,61.503368 757.120850,83.883095 750.293213,108.037376 
	C743.550354,131.891541 725.633057,144.319107 702.081116,148.950378 
	C694.627747,150.416000 686.881897,150.797180 679.258301,150.913162 
	C661.308899,151.186279 643.352478,151.000717 625.159241,151.000717 
	C625.159241,130.577530 625.159241,110.506615 625.159241,90.133591 
	C636.592896,90.133591 647.999084,90.133591 659.877319,90.133591 
	C659.877319,100.747917 659.877319,111.487267 659.877319,123.611176 
	C671.757996,122.751732 683.360840,123.166573 694.374451,120.818169 
	C710.407410,117.399498 719.358765,102.428993 717.488098,85.464767 
	C715.495361,67.392914 704.081421,55.507610 687.112671,54.988930 
	C668.308411,54.414143 649.479858,54.630405 630.661926,54.505344 
	C628.861084,54.493378 627.060120,54.503746 625.096191,54.503746 
	C625.096191,45.053417 625.096191,36.095081 625.096191,27.182755 
	C625.442444,26.951517 625.712219,26.613369 625.980225,26.614859 
	C648.790710,26.741711 671.632690,26.222210 694.400085,27.289747 
	C708.846680,27.967133 722.350159,33.040974 733.720947,43.267368 
z"/>
<path fill="#FDFDFE" opacity="1.000000" stroke="none" 
	d="
M1814.869263,93.106369 
	C1823.386719,112.411179 1831.772339,131.359283 1840.462646,150.995529 
	C1828.410522,150.995529 1816.998535,151.119293 1805.598022,150.811829 
	C1804.405029,150.779648 1802.839233,148.377060 1802.190674,146.773315 
	C1792.354858,122.451668 1782.650879,98.076706 1772.895264,73.722504 
	C1771.306885,69.757233 1769.618774,65.831841 1767.658325,61.123276 
	C1756.215576,89.702385 1745.003662,117.365639 1734.144287,145.166580 
	C1732.362915,149.726791 1730.297729,151.417130 1725.274658,151.150360 
	C1715.664551,150.639954 1706.007935,151.002045 1695.750732,151.002045 
	C1700.616821,139.963623 1705.280273,129.369370 1709.956177,118.780571 
	C1722.904785,89.457458 1735.912842,60.160324 1748.732422,30.780899 
	C1750.125854,27.586964 1751.673828,26.273615 1755.281372,26.397470 
	C1763.937622,26.694658 1772.615234,26.647018 1781.275391,26.413532 
	C1784.466309,26.327505 1785.876343,27.493490 1787.114868,30.330828 
	C1796.217896,51.182770 1805.507080,71.953384 1814.869263,93.106369 
z"/>
<path fill="#FCFCFC" opacity="1.000000" stroke="none" 
	d="
M369.279541,56.174477 
	C384.540619,50.970993 398.845215,51.593170 411.872742,61.148109 
	C422.500122,68.942642 425.626862,80.510658 425.865051,92.838112 
	C426.234894,111.982361 425.962769,131.139008 425.962769,150.647858 
	C414.890991,150.647858 403.838409,150.647858 392.180542,150.647858 
	C392.180542,148.947830 392.184418,147.178421 392.179932,145.409042 
	C392.140717,129.919083 392.273834,114.426071 392.000488,98.940231 
	C391.807922,88.033577 386.875366,82.310104 377.941620,81.681190 
	C367.421234,80.940590 359.751221,86.678734 358.045959,97.028824 
	C357.320465,101.432106 357.236389,105.971931 357.201691,110.452354 
	C357.098572,123.763809 357.164734,137.076569 357.164734,150.696716 
	C345.940552,150.696716 334.897217,150.696716 323.631226,150.696716 
	C323.631226,118.775330 323.631226,87.013985 323.631226,54.869522 
	C334.238342,54.869522 344.771515,54.869522 355.759399,54.869522 
	C355.759399,57.964161 355.759399,60.867592 355.759399,63.904583 
	C360.418365,61.214985 364.666870,58.762337 369.279541,56.174477 
z"/>
<path fill="#FEFEFE" opacity="1.000000" stroke="none" 
	d="
M1337.955566,78.239838 
	C1338.744263,82.887573 1340.008545,87.134537 1340.055664,91.394966 
	C1340.272949,111.050423 1340.151489,130.709610 1340.151489,150.684509 
	C1329.185791,150.684509 1318.133789,150.684509 1306.734863,150.684509 
	C1306.734863,135.567642 1306.764771,120.607857 1306.710693,105.648361 
	C1306.699219,102.490639 1306.531128,99.316803 1306.173462,96.180214 
	C1305.209106,87.717545 1300.998047,82.810364 1294.067749,81.826683 
	C1285.112183,80.555519 1276.941406,84.152557 1274.204956,91.626358 
	C1272.534912,96.187721 1271.911743,101.326683 1271.802612,106.228134 
	C1271.494629,120.051956 1271.699219,133.887085 1271.686157,147.717743 
	C1271.685303,148.678207 1271.555420,149.638535 1271.471680,150.789337 
	C1260.281006,150.789337 1249.356079,150.789337 1238.166016,150.789337 
	C1238.166016,118.784874 1238.166016,86.884262 1238.166016,54.739059 
	C1248.704712,54.739059 1259.138428,54.739059 1269.879517,54.739059 
	C1269.879517,57.844219 1269.879517,60.788376 1269.879517,64.820999 
	C1281.474854,55.051754 1294.041504,51.402042 1308.271484,53.688656 
	C1322.869141,56.034359 1332.960205,63.719791 1337.955566,78.239838 
z"/>
<path fill="#FDFDFD" opacity="1.000000" stroke="none" 
	d="
M1138.824463,152.018158 
	C1129.494629,152.860016 1120.820923,152.329514 1112.477417,148.605240 
	C1100.973877,143.470398 1095.399414,134.238663 1095.924194,120.604599 
	C1096.330811,110.037605 1103.426147,100.337975 1114.817993,97.511063 
	C1123.748291,95.295013 1133.160889,94.898438 1142.393188,94.074928 
	C1147.343872,93.633354 1152.366211,93.996506 1157.369629,93.996506 
	C1156.777100,84.687744 1151.465210,79.766594 1141.371094,79.006889 
	C1130.559814,78.193192 1120.576416,80.630882 1111.245239,86.886780 
	C1107.510742,79.458481 1103.790161,72.057907 1099.958618,64.436920 
	C1107.764771,58.830269 1116.632935,56.335327 1125.831909,54.628899 
	C1138.285767,52.318661 1150.689819,52.218216 1162.936646,55.684597 
	C1178.730103,60.154835 1189.404785,70.471893 1190.460449,86.823425 
	C1191.827515,107.998528 1190.793945,129.328598 1190.793945,150.761871 
	C1180.966919,150.761871 1170.724731,150.761871 1160.083740,150.761871 
	C1160.083740,147.137024 1160.083740,143.744141 1160.083740,139.083618 
	C1154.551025,147.183884 1147.578125,150.773270 1138.824463,152.018158 
M1146.519531,130.476852 
	C1156.175415,126.669853 1158.761597,122.379303 1157.361816,111.388069 
	C1150.055054,111.907661 1142.642456,112.144913 1135.316040,113.067490 
	C1131.107300,113.597481 1128.729736,116.606422 1128.598145,121.078117 
	C1128.462769,125.679886 1130.611938,128.974045 1134.933838,130.007416 
	C1138.390137,130.833817 1142.116089,130.532135 1146.519531,130.476852 
z"/>
<path fill="#FDFDFE" opacity="1.000000" stroke="none" 
	d="
M1583.157837,55.796181 
	C1607.487671,63.944378 1620.705933,86.033485 1616.161621,110.936096 
	C1593.313599,110.936096 1570.386719,110.936096 1547.001709,110.936096 
	C1547.755615,117.426224 1551.431396,121.396286 1556.491333,123.657509 
	C1569.171875,129.324371 1581.116455,127.422859 1591.647339,119.137619 
	C1597.890381,124.876144 1603.983398,130.476807 1610.503418,136.470016 
	C1604.726318,142.948853 1598.250244,147.138092 1590.704468,149.298279 
	C1571.401978,154.824066 1552.523071,154.415390 1534.944092,143.483734 
	C1516.752319,132.171082 1510.236206,115.140587 1513.161377,94.639633 
	C1515.925903,75.265366 1527.634888,62.475967 1545.944458,56.134270 
	C1558.023560,51.950569 1570.447998,51.873463 1583.157837,55.796181 
M1575.426880,93.547691 
	C1578.530884,93.547691 1581.634888,93.547691 1584.778809,93.547691 
	C1583.579468,83.344597 1575.466187,76.868996 1564.923950,76.972664 
	C1554.453369,77.075615 1545.898804,86.049957 1546.583008,93.547646 
	C1555.859131,93.547646 1565.154175,93.547646 1575.426880,93.547691 
z"/>
<path fill="#FDFDFD" opacity="1.000000" stroke="none" 
	d="
M882.135010,107.976547 
	C865.057739,99.147011 863.596252,70.093483 886.937500,59.051548 
	C901.848999,51.997425 917.551086,51.771278 933.361938,54.538883 
	C940.437500,55.777428 947.296570,58.253098 954.824158,60.324249 
	C951.003174,68.909050 947.727112,76.269432 944.919739,82.576958 
	C935.679077,80.666626 927.037720,78.524796 918.271118,77.232475 
	C914.448547,76.668968 910.166504,77.238235 906.483337,78.464851 
	C904.307129,79.189575 902.894043,82.205856 901.137817,84.191628 
	C903.025269,85.794960 904.692017,88.329575 906.838928,88.838463 
	C915.565552,90.906960 924.505920,92.074181 933.232117,94.144180 
	C937.838989,95.237007 942.537781,96.896492 946.556396,99.347404 
	C962.793884,109.250465 961.278259,134.688019 944.542114,143.908585 
	C937.713013,147.670975 929.846680,150.451447 922.148499,151.549088 
	C905.811646,153.878433 889.608948,152.053574 874.108643,145.876190 
	C871.980408,145.028015 869.967957,143.889374 867.457520,142.669281 
	C870.836853,134.956985 874.075623,127.565475 877.090942,120.683929 
	C885.047791,122.976349 892.658264,125.748230 900.511902,127.239899 
	C906.312012,128.341522 912.428406,127.838829 918.405457,127.898537 
	C919.683289,127.911301 921.312500,127.639587 922.174011,126.843437 
	C923.743713,125.392845 925.934570,123.400612 925.855530,121.729523 
	C925.780212,120.136902 923.364807,117.741982 921.586243,117.308670 
	C915.465515,115.817505 909.104248,115.326828 902.964539,113.897064 
	C896.059998,112.289185 889.296387,110.076210 882.135010,107.976547 
z"/>
<path fill="#FEFEFE" opacity="1.000000" stroke="none" 
	d="
M91.000015,123.000053 
	C102.813301,123.000053 114.126602,123.000053 125.794037,123.000053 
	C125.794037,132.221497 125.794037,141.283966 125.794037,150.674530 
	C94.786484,150.674530 63.565197,150.674530 32.024849,150.674530 
	C32.024849,109.545143 32.024849,68.354424 32.024849,26.832787 
	C43.459782,26.832787 54.862083,26.832787 66.730103,26.832787 
	C66.730103,58.694046 66.730103,90.582321 66.730103,123.000053 
	C74.953979,123.000053 82.727005,123.000053 91.000015,123.000053 
z"/>
<path fill="#FDFDFD" opacity="1.000000" stroke="none" 
	d="
M1473.021973,84.044693 
	C1467.218140,86.949364 1461.763306,89.722649 1456.081299,92.611481 
	C1454.974243,91.073975 1454.029907,89.764305 1453.087646,88.452980 
	C1447.588013,80.799316 1439.804565,78.209709 1430.185059,80.833969 
	C1422.101196,83.039284 1416.592285,89.832031 1416.003296,98.696564 
	C1415.783813,102.000717 1415.639648,105.432388 1416.270630,108.646996 
	C1417.980957,117.361061 1422.884766,123.362572 1431.957275,125.304932 
	C1440.582886,127.151611 1448.413452,123.950951 1453.617920,116.399826 
	C1454.358887,115.324738 1455.049072,114.214661 1455.961060,112.816765 
	C1464.641724,117.220444 1473.166992,121.545250 1481.933716,125.992561 
	C1475.180176,141.797653 1462.716431,149.383652 1446.895630,151.658707 
	C1432.113403,153.784424 1417.721802,152.216919 1404.595215,144.033691 
	C1386.059814,132.478516 1379.225830,115.387711 1382.186523,94.506821 
	C1385.011719,74.582428 1397.470825,62.009468 1416.285645,56.140797 
	C1432.174438,51.184849 1448.124878,51.387283 1463.367676,59.145615 
	C1472.003540,63.541218 1478.189087,70.225479 1481.820679,79.494324 
	C1478.940430,81.000656 1476.155762,82.456985 1473.021973,84.044693 
z"/>
<path fill="#FDFEFE" opacity="1.000000" stroke="none" 
	d="
M1046.974976,57.998146 
	C1050.433472,57.998146 1053.401611,57.998146 1056.631348,57.998146 
	C1056.631348,66.416977 1056.631348,74.489357 1056.631348,83.081955 
	C1049.503296,83.081955 1042.435669,83.081955 1035.056641,83.081955 
	C1035.056641,95.203842 1034.791016,106.821205 1035.180908,118.416519 
	C1035.348633,123.405518 1039.853149,126.694237 1044.988281,126.269768 
	C1048.241455,126.000870 1051.429932,124.948196 1055.434692,124.075470 
	C1057.839966,130.850067 1060.523560,138.073425 1062.836914,145.413391 
	C1063.083252,146.194916 1061.339722,148.426224 1060.223633,148.679031 
	C1053.780029,150.138489 1047.237671,152.201843 1040.747681,152.138031 
	C1033.579468,152.067551 1025.981567,151.062378 1019.370972,148.444107 
	C1006.453247,143.327728 1001.538086,132.141373 1001.114380,118.901260 
	C1000.789368,108.746490 1001.015442,98.574066 1000.997437,88.409492 
	C1000.994568,86.788353 1000.997070,85.167198 1000.997070,83.304031 
	C996.208008,83.304031 991.917908,83.304031 987.298706,83.304031 
	C987.298706,74.828697 987.298706,66.616837 987.298706,57.988354 
	C991.788330,57.988354 996.205322,57.988354 1000.846313,57.988354 
	C1000.846313,49.629070 1000.846313,41.675697 1000.846313,33.360992 
	C1012.136292,33.360992 1023.190796,33.360992 1034.701416,33.360992 
	C1034.701416,41.336639 1034.701416,49.412170 1034.701416,57.998146 
	C1038.917114,57.998146 1042.700806,57.998146 1046.974976,57.998146 
z"/>
<path fill="#FDFDFD" opacity="1.000000" stroke="none" 
	d="
M1910.292358,86.000145 
	C1910.292358,107.808022 1910.292358,129.115891 1910.292358,150.713043 
	C1898.667847,150.713043 1887.235107,150.713043 1875.447266,150.713043 
	C1875.447266,109.624985 1875.447266,68.407303 1875.447266,26.840302 
	C1886.721924,26.840302 1898.130615,26.840302 1910.292358,26.840302 
	C1910.292358,46.370815 1910.292358,65.935478 1910.292358,86.000145 
z"/>
<path fill="#FBFCFC" opacity="1.000000" stroke="none" 
	d="
M828.742798,141.934875 
	C828.742798,145.063248 828.742798,147.701218 828.742798,150.671051 
	C817.423279,150.671051 806.395630,150.671051 795.142090,150.671051 
	C795.142090,118.743515 795.142090,86.869637 795.142090,54.740288 
	C806.170837,54.740288 817.089905,54.740288 828.742859,54.740288 
	C828.742859,83.716873 828.742859,112.580673 828.742798,141.934875 
z"/>
<path fill="#CC585F" opacity="1.000000" stroke="none" 
	d="
M264.931885,125.967316 
	C244.421890,140.499039 222.019196,142.603516 198.365143,138.209061 
	C196.021301,137.773636 193.122650,138.100998 190.992767,139.131241 
	C182.775681,143.105927 174.766159,147.509705 165.190338,152.534958 
	C167.751160,145.909744 169.444458,140.450653 171.938675,135.385986 
	C174.328766,130.532745 173.885498,127.593292 169.403091,123.822578 
	C150.518906,107.936691 150.973099,84.437874 170.358444,69.048355 
	C188.260056,54.836727 209.042847,51.460438 231.169388,54.418602 
	C242.873550,55.983368 253.794662,59.804317 263.445892,66.793427 
	C286.315887,83.355141 287.036316,107.745430 264.931885,125.967316 
M188.305923,135.767990 
	C191.602646,133.614197 194.781555,132.869385 199.001831,133.881119 
	C216.467621,138.068222 233.730316,136.955170 250.288544,129.713562 
	C254.962845,127.669296 259.527069,124.991798 263.509918,121.813026 
	C282.355255,106.772324 281.198364,83.909019 260.950684,69.941315 
	C244.310425,58.462185 225.582352,55.983448 206.062057,58.455688 
	C194.031921,59.979305 182.785843,64.096825 173.215225,71.877678 
	C164.189499,79.215538 158.549683,88.364525 160.036987,100.424957 
	C161.301926,110.682228 167.559464,118.088249 175.764893,123.699509 
	C179.175186,126.031639 179.462204,128.154968 177.933105,131.497055 
	C176.317764,135.027634 175.009827,138.698868 173.028610,143.657745 
	C178.855957,140.645172 183.245911,138.375687 188.305923,135.767990 
z"/>
<path fill="#FCFCFC" opacity="1.000000" stroke="none" 
	d="
M793.318848,34.430717 
	C789.939270,27.332235 790.135986,20.694708 795.091064,14.971196 
	C800.862854,8.304412 808.662659,6.872191 816.953186,8.508499 
	C826.883545,10.468480 832.401123,17.016329 832.237610,25.936365 
	C832.069397,35.117718 826.151123,41.700397 816.286072,43.400272 
	C807.048523,44.992001 799.126831,42.852188 793.318848,34.430717 
z"/>
<path fill="#161B28" opacity="1.000000" stroke="none" 
	d="
M531.848999,117.146179 
	C526.288818,117.575401 520.903503,118.858238 515.930603,117.930275 
	C506.530853,116.176231 500.648163,107.454651 501.292908,98.147896 
	C501.949158,88.675232 508.779572,81.385841 518.273254,80.026520 
	C533.702271,77.817368 544.895325,87.891106 543.036072,102.453392 
	C542.168762,109.246284 538.154175,113.889221 531.848999,117.146179 
z"/>
<path fill="#161B29" opacity="1.000000" stroke="none" 
	d="
M1146.120972,130.604004 
	C1142.116089,130.532135 1138.390137,130.833817 1134.933838,130.007416 
	C1130.611938,128.974045 1128.462769,125.679886 1128.598145,121.078117 
	C1128.729736,116.606422 1131.107300,113.597481 1135.316040,113.067490 
	C1142.642456,112.144913 1150.055054,111.907661 1157.361816,111.388069 
	C1158.761597,122.379303 1156.175415,126.669853 1146.120972,130.604004 
z"/>
<path fill="#1F2431" opacity="1.000000" stroke="none" 
	d="
M1574.937988,93.547668 
	C1565.154175,93.547646 1555.859131,93.547646 1546.583008,93.547646 
	C1545.898804,86.049957 1554.453369,77.075615 1564.923950,76.972664 
	C1575.466187,76.868996 1583.579468,83.344597 1584.778809,93.547691 
	C1581.634888,93.547691 1578.530884,93.547691 1574.937988,93.547668 
z"/>
<path fill="#151927" opacity="1.000000" stroke="none" 
	d="
M187.970886,135.937103 
	C183.245911,138.375687 178.855957,140.645172 173.028610,143.657745 
	C175.009827,138.698868 176.317764,135.027634 177.933105,131.497055 
	C179.462204,128.154968 179.175186,126.031639 175.764893,123.699509 
	C167.559464,118.088249 161.301926,110.682228 160.036987,100.424957 
	C158.549683,88.364525 164.189499,79.215538 173.215225,71.877678 
	C182.785843,64.096825 194.031921,59.979305 206.062057,58.455688 
	C225.582352,55.983448 244.310425,58.462185 260.950684,69.941315 
	C281.198364,83.909019 282.355255,106.772324 263.509918,121.813026 
	C259.527069,124.991798 254.962845,127.669296 250.288544,129.713562 
	C233.730316,136.955170 216.467621,138.068222 199.001831,133.881119 
	C194.781555,132.869385 191.602646,133.614197 187.970886,135.937103 
M237.494370,101.905884 
	C238.838120,99.436058 240.570953,97.097061 241.453583,94.472176 
	C244.241119,86.182320 238.874008,77.390541 230.520020,77.718475 
	C226.346985,77.882294 222.290405,81.012337 218.717636,82.567230 
	C214.796921,80.970161 210.531570,77.777939 206.284241,77.801773 
	C197.099182,77.853325 192.164841,87.941612 196.497055,96.683266 
	C200.940399,105.649132 208.685364,111.500244 216.872452,116.701805 
	C217.912628,117.362671 220.528000,116.767403 221.667953,115.838753 
	C226.928833,111.553055 231.925797,106.943390 237.494370,101.905884 
z"/>
<path fill="#D75C62" opacity="1.000000" stroke="none" 
	d="
M237.255859,102.177872 
	C231.925797,106.943390 226.928833,111.553055 221.667953,115.838753 
	C220.528000,116.767403 217.912628,117.362671 216.872452,116.701805 
	C208.685364,111.500244 200.940399,105.649132 196.497055,96.683266 
	C192.164841,87.941612 197.099182,77.853325 206.284241,77.801773 
	C210.531570,77.777939 214.796921,80.970161 218.717636,82.567230 
	C222.290405,81.012337 226.346985,77.882294 230.520020,77.718475 
	C238.874008,77.390541 244.241119,86.182320 241.453583,94.472176 
	C240.570953,97.097061 238.838120,99.436058 237.255859,102.177872 
z"/>
</svg>