<?xml version="1.0" encoding="UTF-8"?>
<svg version="1.1" xmlns="http://www.w3.org/2000/svg" width="1527" height="163">
<path d="M0 0 C2.3046875 2.140625 2.3046875 2.140625 4 4 C3.979375 3.030625 3.95875 2.06125 3.9375 1.0625 C4 -2 4 -2 5 -3 C6.92667507 -3.08748207 8.85651861 -3.10697334 10.78515625 -3.09765625 C11.95498047 -3.09443359 13.12480469 -3.09121094 14.33007812 -3.08789062 C15.56177734 -3.07951172 16.79347656 -3.07113281 18.0625 -3.0625 C19.91584961 -3.05573242 19.91584961 -3.05573242 21.80664062 -3.04882812 C24.87114117 -3.03699608 27.93554721 -3.02051173 31 -3 C31.11647747 6.5541632 31.20500829 16.10807741 31.25906086 25.66279888 C31.28501952 30.1007333 31.32016199 34.53817762 31.37719727 38.97583008 C31.43201298 43.26824996 31.46152344 47.56020211 31.47438622 51.85294533 C31.48353814 53.48064334 31.50140674 55.10831931 31.52865028 56.73581505 C31.72903395 69.21677236 30.39765888 79.89368915 22.25 90 C18.32919452 94.03939317 14.09796488 96.67650447 9 99 C8.113125 99.4125 7.22625 99.825 6.3125 100.25 C-9.90683449 105.5103247 -31.79835825 103.21089845 -46.875 95.8125 C-48.59211206 94.89117747 -50.30408249 93.95977749 -52 93 C-50.55676531 88.26210835 -48.62773267 84.01141849 -46.375 79.625 C-46.05015625 78.98433594 -45.7253125 78.34367187 -45.390625 77.68359375 C-44.59742593 76.12052499 -43.79922969 74.55999378 -43 73 C-40.15428728 73.60666843 -37.95496401 74.49661887 -35.4375 75.9375 C-26.67705102 80.42376344 -16.24036375 81.18193639 -6.75 78.9375 C-3.26695548 77.80323665 -1.35806224 76.84420593 0.5625 73.6875 C1.8527859 70.37763617 2.65609545 67.52502163 3 64 C2.40832031 64.34933594 1.81664062 64.69867188 1.20703125 65.05859375 C0.41683594 65.51363281 -0.37335938 65.96867187 -1.1875 66.4375 C-1.96480469 66.88996094 -2.74210937 67.34242187 -3.54296875 67.80859375 C-11.56507511 71.69848634 -23.29960947 71.15045388 -31.78515625 68.875 C-41.74471977 64.94035762 -49.36428444 58.1479268 -53.8125 48.375 C-54.204375 47.26125 -54.59625 46.1475 -55 45 C-55.391875 43.9275 -55.78375 42.855 -56.1875 41.75 C-58.16852816 32.60679309 -57.22120712 25.31744429 -53 17 C-52.649375 16.30003906 -52.29875 15.60007812 -51.9375 14.87890625 C-46.77518365 5.68353025 -38.97235028 0.04854231 -29 -3 C-28.37867188 -3.19078125 -27.75734375 -3.3815625 -27.1171875 -3.578125 C-17.9446486 -5.40586338 -8.23783802 -4.52382969 0 0 Z M-25.46484375 23.54296875 C-28.32242655 27.98696763 -28.5854105 31.81493558 -28 37 C-26.18024842 41.34718434 -23.06661432 44.62245348 -19 47 C-13.44102364 48.34491364 -8.25641142 48.52524507 -3 46 C1.06988597 42.88357972 3.25680557 39.51166067 4.0625 34.4375 C4.25606668 30.22204779 3.45191068 27.51440531 1 24 C-2.87447905 20.3294409 -6.45846694 18.34657269 -11.75 17.625 C-16.87674783 18.21654783 -21.82493609 19.70893268 -25.46484375 23.54296875 Z " fill="#FEFEFE" transform="translate(422,44)"/>
<path d="M0 0 C7.25541567 -0.06936835 14.50965201 -0.12895239 21.76513672 -0.16479492 C24.2264397 -0.17975774 26.68771659 -0.20013528 29.14892578 -0.22631836 C52.43393767 -0.46758931 73.34541694 -0.23154992 91 17 C101.25665585 29.15051969 103.18973345 43.63316344 102 59 C100.42878899 68.0108005 96.79921677 74.99880881 91 82 C90.49984375 82.63550781 89.9996875 83.27101563 89.484375 83.92578125 C80.80663302 93.80876517 66.39317776 98.26729151 53.64129639 99.26199341 C50.17745598 99.34325754 46.72618139 99.33844035 43.26171875 99.29296875 C41.39154839 99.28660149 41.39154839 99.28660149 39.4835968 99.28010559 C35.5513328 99.26348433 31.61960574 99.22586318 27.6875 99.1875 C25.00066429 99.17071336 22.31381437 99.15840726 19.62695312 99.14648438 C13.08426856 99.11620351 6.54272619 99.05744833 0 99 C0 82.5 0 66 0 49 C9.57 49.33 19.14 49.66 29 50 C29 58.58 29 67.16 29 76 C29.99 75.505 29.99 75.505 31 75 C33.85991115 74.97950934 36.70413378 75.00708648 39.5625 75.0625 C50.21589068 75.13160307 58.75279393 74.53652499 67 67 C71.67480605 60.30330814 72.78441598 53.01224897 72 45 C70.53488465 38.47758891 68.41415604 33.47485936 63.171875 29.21875 C55.66273622 25.00498867 49.09407893 24.53668536 40.625 24.48828125 C39.4599292 24.47033005 38.2948584 24.45237885 37.09448242 24.43388367 C33.39635773 24.37997492 29.69836069 24.34594646 26 24.3125 C23.48305523 24.27930988 20.96612726 24.24481866 18.44921875 24.20898438 C12.29946274 24.12182567 6.15027723 24.06158772 0 24 C0 16.08 0 8.16 0 0 Z " fill="#FDFEFE" transform="translate(490,19)"/>
<path d="M0 0 C9.57 0 19.14 0 29 0 C30.258125 2.83078125 31.51625 5.6615625 32.8125 8.578125 C33.24589188 9.55324539 33.67928375 10.52836578 34.12580872 11.53303528 C36.32965013 16.49162835 38.53341494 21.45025545 40.73706055 26.40893555 C46.63737166 39.68566894 46.63737166 39.68566894 52.54104614 52.96090698 C53.96598039 56.16398451 55.39058904 59.36720682 56.81518555 62.57043457 C57.46800576 64.03804153 58.12099399 65.50557378 58.77416992 66.97302246 C60.55506811 70.97411326 62.33244766 74.97672935 64.1050415 78.98150635 C64.73142086 80.39424534 65.35944734 81.80625466 65.9887085 83.2177124 C66.97894401 85.43922249 67.96448245 87.66276655 68.94921875 89.88671875 C69.40854546 90.91283012 69.40854546 90.91283012 69.87715149 91.95967102 C72 96.77246106 72 96.77246106 72 99 C62.1 99 52.2 99 42 99 C36.37614679 86.62752294 36.37614679 86.62752294 34.23828125 81.2421875 C33.76366455 80.05069092 33.28904785 78.85919434 32.80004883 77.6315918 C32.55719147 77.01826996 32.31433411 76.40494812 32.06411743 75.77304077 C31.29487925 73.83050276 30.52223257 71.88934958 29.7487793 69.94848633 C27.90766807 65.3264582 26.07213709 60.70222133 24.23730469 56.07769775 C23.03937761 53.058574 21.84037649 50.03988664 20.6394043 47.02197266 C19.76865602 44.83380708 18.90024979 42.64470777 18.03442383 40.45458984 C17.64794678 39.48344238 17.26146973 38.51229492 16.86328125 37.51171875 C16.52594971 36.66053467 16.18861816 35.80935059 15.84106445 34.93237305 C15.15430292 33.03224986 15.15430292 33.03224986 14 32 C12.2655566 36.20617317 10.5366162 40.41458417 8.8125 44.625 C8.55845398 45.24536133 8.30440796 45.86572266 8.04266357 46.50488281 C4.84336562 54.33030608 1.79173504 62.16706579 -0.96484375 70.16015625 C-2.32542705 73.89277535 -3.97497533 77.45353032 -5.6640625 81.046875 C-8.3297154 86.93937088 -10.62712511 92.98503808 -13 99 C-22.9 99 -32.8 99 -43 99 C-41.06620616 93.19861848 -39.14182819 87.76437964 -36.62109375 82.25 C-36.29667801 81.53016434 -35.97226227 80.81032867 -35.63801575 80.06867981 C-34.93901152 78.5184824 -34.23812802 76.96913123 -33.53552246 75.42056274 C-31.63277908 71.22601308 -29.74463944 67.02489464 -27.85546875 62.82421875 C-27.46110626 61.94811447 -27.06674377 61.07201019 -26.66043091 60.1693573 C-21.35026255 48.35580335 -16.16891041 36.48555519 -10.97827148 24.61914062 C-10.61537521 23.79016769 -10.25247894 22.96119476 -9.87858582 22.10710144 C-9.21050166 20.5806772 -8.54311522 19.05394725 -7.87666321 17.52680969 C-5.30805378 11.65640952 -2.65248393 5.83546466 0 0 Z " fill="#FDFEFE" transform="translate(1375,19)"/>
<path d="M0 0 C7.06393411 5.68497092 10.12266777 12.6211641 11.68359375 21.45703125 C11.94405866 25.43895013 11.91723603 29.40554164 11.87890625 33.39453125 C11.87607635 34.51520996 11.87324646 35.63588867 11.87033081 36.79052734 C11.85919626 40.34614036 11.83410389 43.90149523 11.80859375 47.45703125 C11.79855527 49.87760051 11.78943094 52.29817375 11.78125 54.71875 C11.76098633 60.63168827 11.72182408 66.54407307 11.68359375 72.45703125 C2.44359375 72.45703125 -6.79640625 72.45703125 -16.31640625 72.45703125 C-16.37248047 67.81447266 -16.37248047 67.81447266 -16.4296875 63.078125 C-16.47595583 60.06625475 -16.52717024 57.05450617 -16.57885742 54.04272461 C-16.61202286 51.95653738 -16.64008068 49.87026223 -16.6628418 47.78393555 C-16.69654194 44.77745246 -16.74886593 41.771769 -16.8046875 38.765625 C-16.81107742 37.83930771 -16.81746735 36.91299042 -16.8240509 35.95860291 C-16.94926655 30.38938958 -17.67968821 26.39295107 -20.31640625 21.45703125 C-23.21668909 18.98641994 -26.55737881 19.08975938 -30.2890625 19.21484375 C-33.5802791 19.60801413 -35.63128746 20.52124794 -38.31640625 22.45703125 C-41.44387555 28.17384538 -41.78264078 33.10893993 -41.828125 39.546875 C-41.8460762 40.4914003 -41.8640274 41.4359256 -41.88252258 42.40907288 C-41.93638781 45.40418125 -41.97044483 48.39913244 -42.00390625 51.39453125 C-42.03710032 53.43426655 -42.0715919 55.47398117 -42.10742188 57.51367188 C-42.19452598 62.49481132 -42.25479788 67.47525123 -42.31640625 72.45703125 C-51.88640625 72.45703125 -61.45640625 72.45703125 -71.31640625 72.45703125 C-70.98640625 47.04703125 -70.65640625 21.63703125 -70.31640625 -4.54296875 C-61.40640625 -4.54296875 -52.49640625 -4.54296875 -43.31640625 -4.54296875 C-42.98640625 -2.89296875 -42.65640625 -1.24296875 -42.31640625 0.45703125 C-41.56875 0.10769531 -40.82109375 -0.24164063 -40.05078125 -0.6015625 C-39.0659375 -1.05660156 -38.08109375 -1.51164062 -37.06640625 -1.98046875 C-36.091875 -2.43292969 -35.11734375 -2.88539062 -34.11328125 -3.3515625 C-23.10632376 -8.04028042 -9.90177501 -6.59561742 0 0 Z " fill="#FEFEFE" transform="translate(323.31640625,45.54296875)"/>
<path d="M0 0 C6.34587702 5.75049726 8.63174689 13.05771026 9.3125 21.375 C9.43856128 25.20922917 9.42936825 29.03904829 9.41015625 32.875 C9.4087413 33.95128662 9.40732635 35.02757324 9.40586853 36.13647461 C9.4003038 39.54934555 9.38775787 42.96214913 9.375 46.375 C9.36998044 48.6992178 9.36541833 51.02343663 9.36132812 53.34765625 C9.35119995 59.02348388 9.3316177 64.69916717 9.3125 70.375 C0.0725 70.375 -9.1675 70.375 -18.6875 70.375 C-18.72488281 67.19617188 -18.76226563 64.01734375 -18.80078125 60.7421875 C-18.84702842 57.65422796 -18.89825055 54.5663881 -18.94995117 51.47851562 C-18.98314938 49.3369884 -19.01119714 47.19537476 -19.03393555 45.05371094 C-19.06757504 41.97032946 -19.11989654 38.88773631 -19.17578125 35.8046875 C-19.18217117 34.85133514 -19.1885611 33.89798279 -19.19514465 32.91574097 C-19.31048284 27.6687483 -19.75427463 23.91251078 -22.6875 19.375 C-25.64508329 16.96511732 -28.91541895 17.01947923 -32.65625 17.1171875 C-35.78568664 17.51438523 -38.0568436 18.68386374 -40.6875 20.375 C-44.32577642 25.83241463 -43.88479066 31.68683614 -44.00390625 38.05078125 C-44.02468735 38.9759404 -44.04546844 39.90109955 -44.06687927 40.85429382 C-44.1320656 43.79862307 -44.19111558 46.74303865 -44.25 49.6875 C-44.29321464 51.68815983 -44.33682986 53.68881106 -44.38085938 55.68945312 C-44.4884662 60.58454836 -44.58776939 65.47971264 -44.6875 70.375 C-53.9275 70.375 -63.1675 70.375 -72.6875 70.375 C-72.6875 44.965 -72.6875 19.555 -72.6875 -6.625 C-63.7775 -6.625 -54.8675 -6.625 -45.6875 -6.625 C-45.6875 -4.315 -45.6875 -2.005 -45.6875 0.375 C-45.31625 -0.058125 -44.945 -0.49125 -44.5625 -0.9375 C-31.79538057 -12.42790749 -12.7070755 -9.65301444 0 0 Z " fill="#FDFEFE" transform="translate(1044.6875,47.625)"/>
<path d="M0 0 C6.1135881 6.71096573 8.63667921 15.41764477 8.61352539 24.37817383 C8.61341209 25.84913261 8.61341209 25.84913261 8.61329651 27.34980774 C8.60813522 28.3958165 8.60297394 29.44182526 8.59765625 30.51953125 C8.5962413 31.60006271 8.59482635 32.68059418 8.59336853 33.79386902 C8.5877808 37.23760776 8.5752305 40.68128098 8.5625 44.125 C8.55748342 46.46288968 8.55292079 48.80078039 8.54882812 51.13867188 C8.53866722 56.86332668 8.51908927 62.58784017 8.5 68.3125 C-0.08 68.3125 -8.66 68.3125 -17.5 68.3125 C-17.83 66.6625 -18.16 65.0125 -18.5 63.3125 C-19.15742187 63.745625 -19.81484375 64.17875 -20.4921875 64.625 C-30.35338687 70.39740939 -40.61024381 71.21991358 -51.69921875 68.5390625 C-58.17332244 66.11974124 -63.3885798 62.76656087 -66.7109375 56.5 C-69.14503592 49.75200437 -69.39455534 41.89103486 -66.5 35.3125 C-60.72859707 26.90274145 -53.08105665 24.330324 -43.5 22.3125 C-39.43745265 21.86714227 -35.396761 21.71669284 -31.3125 21.625 C-30.26513672 21.59083984 -29.21777344 21.55667969 -28.13867188 21.52148438 C-25.59255531 21.44010165 -23.04673556 21.37060653 -20.5 21.3125 C-22.23017027 17.16680937 -22.23017027 17.16680937 -25.24609375 13.9609375 C-34.8172195 11.20737273 -44.66871667 13.35748283 -53.5 17.3125 C-54.49 17.6425 -55.48 17.9725 -56.5 18.3125 C-58.03723734 15.55046468 -59.55184161 12.77664848 -61.0625 10 C-61.50013672 9.21431641 -61.93777344 8.42863281 -62.38867188 7.61914062 C-62.79794922 6.86181641 -63.20722656 6.10449219 -63.62890625 5.32421875 C-64.01119385 4.62772217 -64.39348145 3.93122559 -64.78735352 3.21362305 C-65.5 1.3125 -65.5 1.3125 -64.5 -1.6875 C-57.41858511 -6.74785748 -48.90261556 -8.2473354 -40.5 -9.6875 C-39.32824219 -9.92146484 -39.32824219 -9.92146484 -38.1328125 -10.16015625 C-25.21346651 -12.28087908 -9.76493111 -8.90173278 0 0 Z M-40.5 40.3125 C-41.4363921 43.61195591 -41.4363921 43.61195591 -41.5 47.3125 C-39.36373867 50.18540317 -37.66664747 51.10707702 -34.1484375 51.7265625 C-29.87251525 51.97200819 -26.47119119 51.82771676 -22.9375 49.25 C-20.07415737 45.79930503 -19.5 43.76520137 -19.5 39.3125 C-22.0527107 36.7597893 -23.08330519 37.01479817 -26.625 37 C-31.89736617 37.0764111 -35.72068075 38.14827996 -40.5 40.3125 Z M-18.5 60.3125 C-17.5 62.3125 -17.5 62.3125 -17.5 62.3125 Z " fill="#FDFEFE" transform="translate(928.5,49.6875)"/>
<path d="M0 0 C10.0053359 11.01077407 10.125 20.90790295 10.125 35.8125 C-7.695 36.1425 -25.515 36.4725 -43.875 36.8125 C-40.81992744 42.16630569 -40.81992744 42.16630569 -35.875 44.8125 C-25.72180262 46.99850869 -17.60406108 45.04567337 -8.875 39.8125 C-7.61042969 41.20275391 -7.61042969 41.20275391 -6.3203125 42.62109375 C-5.21369553 43.83086993 -4.10691627 45.04049767 -3 46.25 C-2.44441406 46.86166016 -1.88882812 47.47332031 -1.31640625 48.10351562 C-0.51396484 48.9784668 -0.51396484 48.9784668 0.3046875 49.87109375 C1.04307861 50.68018188 1.04307861 50.68018188 1.79638672 51.50561523 C3.11287141 52.93493396 3.11287141 52.93493396 5.125 53.8125 C2.64518578 59.53704626 -2.03213206 62.52139808 -7.6015625 65.05078125 C-20.7119864 70.01685091 -35.44098322 70.55842326 -48.5625 65.0625 C-53.23231254 62.78746312 -57.8661785 60.12949178 -61.875 56.8125 C-61.875 56.1525 -61.875 55.4925 -61.875 54.8125 C-62.865 54.4825 -63.855 54.1525 -64.875 53.8125 C-66.15625 52.24609375 -66.15625 52.24609375 -67.375 50.25 C-67.97828125 49.28900391 -67.97828125 49.28900391 -68.59375 48.30859375 C-72.01583075 41.64179619 -73.40930675 35.94531704 -73.3125 28.4375 C-73.30347656 27.59968994 -73.29445313 26.76187988 -73.28515625 25.89868164 C-72.97136659 14.68832796 -68.81721265 6.75471265 -60.875 -1.1875 C-54.1423505 -6.61442353 -47.30880055 -9.52413102 -38.875 -11.1875 C-37.6375 -11.47625 -36.4 -11.765 -35.125 -12.0625 C-23.01614844 -13.22872136 -8.89670705 -8.10027694 0 0 Z M-42.3125 13.75 C-43.89086208 15.83343795 -44.50827023 17.24539161 -44.875 19.8125 C-42.10882437 21.19558781 -39.86482 20.92460196 -36.7734375 20.91015625 C-34.95585938 20.90532227 -34.95585938 20.90532227 -33.1015625 20.90039062 C-31.83054687 20.89201172 -30.55953125 20.88363281 -29.25 20.875 C-27.331875 20.86823242 -27.331875 20.86823242 -25.375 20.86132812 C-22.20828708 20.84951203 -19.04166644 20.83303815 -15.875 20.8125 C-16.31328125 19.70648438 -16.7515625 18.60046875 -17.203125 17.4609375 C-17.4496582 16.83880371 -17.69619141 16.21666992 -17.95019531 15.57568359 C-19.56578463 12.49548663 -21.83294889 11.33352556 -24.875 9.8125 C-31.63187856 7.93558929 -36.92299979 9.4660383 -42.3125 13.75 Z " fill="#FDFEFE" transform="translate(1260.875,51.1875)"/>
<path d="M0 0 C-2.64 5.94 -5.28 11.88 -8 18 C-11.55069939 18 -12.88844223 17.79415828 -16 16.5625 C-24.40584522 13.65438221 -32.550139 13.23754544 -41 16 C-41 17.32 -41 18.64 -41 20 C-40.18321777 20.16604736 -39.36643555 20.33209473 -38.52490234 20.50317383 C-35.47073233 21.12827479 -32.41825651 21.76095827 -29.36669922 22.39868164 C-27.40581928 22.80609663 -25.44315159 23.20487643 -23.48046875 23.60351562 C-22.23652344 23.86455078 -20.99257813 24.12558594 -19.7109375 24.39453125 C-18.56931152 24.63018799 -17.42768555 24.86584473 -16.25146484 25.10864258 C-9.7806178 26.88256228 -4.14612184 29.93411166 -0.25 35.5 C2.62395378 41.24790757 3.12763904 47.98503042 1.38671875 54.18359375 C-1.90356059 61.61933516 -7.84345571 66.33809836 -15.25 69.375 C-30.17263093 74.84029477 -49.27165641 73.75656828 -64 68 C-66.01416381 67.02884392 -68.01875556 66.03666313 -70 65 C-69.29937517 60.43263559 -67.68729793 56.4300495 -65.9375 52.1875 C-65.51500977 51.14819336 -65.51500977 51.14819336 -65.08398438 50.08789062 C-64.39325027 48.39032376 -63.69716272 46.69493688 -63 45 C-60.21364171 45.92478271 -57.42871394 46.85066464 -54.65625 47.81640625 C-53.9446875 48.06261719 -53.233125 48.30882812 -52.5 48.5625 C-51.7884375 48.81128906 -51.076875 49.06007812 -50.34375 49.31640625 C-45.37232825 50.76640426 -40.53762697 51.15727385 -35.375 51.1875 C-33.71597656 51.20876953 -33.71597656 51.20876953 -32.0234375 51.23046875 C-29.0999573 51.00761948 -27.46541471 50.52134128 -25 49 C-25 48.01 -25 47.02 -25 46 C-25.71542969 45.86424561 -26.43085937 45.72849121 -27.16796875 45.58862305 C-30.44674961 44.96218715 -33.72334006 44.32493273 -37 43.6875 C-38.12535156 43.47416016 -39.25070312 43.26082031 -40.41015625 43.04101562 C-58.65789371 39.46616647 -58.65789371 39.46616647 -65.1875 32.75 C-68.74966166 27.34534092 -69.79346559 21.39655339 -69 15 C-67.14194645 7.67628528 -63.81165598 2.98996146 -57.4375 -1.125 C-40.64642554 -10.55327336 -16.51432502 -9.90859501 0 0 Z " fill="#FDFEFE" transform="translate(751,47)"/>
<path d="M0 0 C9.24 0 18.48 0 28 0 C28.33 24.75 28.66 49.5 29 75 C44.18 75.33 59.36 75.66 75 76 C75 83.59 75 91.18 75 99 C49.92 99 24.84 99 -1 99 C-1.04010881 74.58264818 -1.04010881 74.58264818 -1.04882812 64.21289062 C-1.05481708 57.12377173 -1.06191876 50.03466569 -1.07543945 42.94555664 C-1.08626661 37.23327429 -1.09227647 31.52100572 -1.09487724 25.80871391 C-1.0967318 23.62411723 -1.100353 21.43952135 -1.10573006 19.2549305 C-1.11293821 16.20647651 -1.11399104 13.15808021 -1.11352539 10.10961914 C-1.11712067 9.19684204 -1.12071594 8.28406494 -1.12442017 7.34362793 C-1.11405216 1.11405216 -1.11405216 1.11405216 0 0 Z " fill="#FEFEFE" transform="translate(24,19)"/>
<path d="M0 0 C4.21937974 3.6043779 7.59846686 7.82645648 10.0625 12.8125 C10.0625 13.8025 10.0625 14.7925 10.0625 15.8125 C6.98845107 17.35265031 3.90200288 18.86612087 0.8125 20.375 C-0.49654297 21.03145508 -0.49654297 21.03145508 -1.83203125 21.70117188 C-2.67636719 22.11044922 -3.52070312 22.51972656 -4.390625 22.94140625 C-5.16567383 23.32369385 -5.94072266 23.70598145 -6.73925781 24.09985352 C-9.30223667 24.93074371 -10.46850648 24.84564131 -12.9375 23.8125 C-13.535625 23.02875 -14.13375 22.245 -14.75 21.4375 C-17.55521221 18.07124535 -19.75202122 17.06814363 -23.9375 15.8125 C-29.5384667 15.54166022 -33.6981881 17.06613134 -37.9375 20.8125 C-41.01669867 26.04713773 -41.81768749 30.87865177 -40.9375 36.8125 C-39.62051942 41.51493914 -38.16741317 44.86861315 -34.25 47.875 C-28.5653323 49.48386822 -23.43110609 49.91712917 -18.0625 47.125 C-15.00614238 44.86329536 -13.5442544 43.21503874 -11.9375 39.8125 C-6.74521145 40.38479633 -2.6271297 42.9107161 1.875 45.375 C2.66326172 45.79974609 3.45152344 46.22449219 4.26367188 46.66210938 C6.1998378 47.70646554 8.13255367 48.7567077 10.0625 49.8125 C8.38845459 57.4025894 3.19618318 62.37123907 -2.9375 66.8125 C-14.48444338 73.10738539 -27.79349892 73.34299911 -40.6015625 71.19921875 C-51.16702137 68.03515653 -59.37128961 61.57049138 -65.5 52.5 C-71.14876751 41.93926075 -72.05368443 29.48409903 -68.625 17.9375 C-64.84949345 9.26186792 -56.85310628 0.7581846 -48.2890625 -3.296875 C-32.71725861 -9.19450172 -14.09516924 -10.10153795 0 0 Z " fill="#FDFEFE" transform="translate(1154.9375,47.1875)"/>
<path d="M0 0 C3.9693655 -0.02291487 7.9385632 -0.04284015 11.90795898 -0.05493164 C13.25920386 -0.05997057 14.61044326 -0.06680177 15.96166992 -0.07543945 C17.90020434 -0.08752419 19.838778 -0.09269828 21.77734375 -0.09765625 C23.52905884 -0.10551147 23.52905884 -0.10551147 25.31616211 -0.11352539 C28 0 28 0 29 1 C29.08651611 2.41570123 29.10704904 3.835595 29.09765625 5.25390625 C29.09443359 6.10791016 29.09121094 6.96191406 29.08789062 7.84179688 C29.07532227 9.18854492 29.07532227 9.18854492 29.0625 10.5625 C29.05798828 11.46419922 29.05347656 12.36589844 29.04882812 13.29492188 C29.03700244 15.52997589 29.01906638 17.76499602 29 20 C37.415 19.505 37.415 19.505 46 19 C46 26.26 46 33.52 46 41 C40.39 41 34.78 41 29 41 C29.33 51.23 29.66 61.46 30 72 C35.70032842 72.99739565 35.70032842 72.99739565 40.875 72.0625 C42.25 71.70833333 43.625 71.35416667 45 71 C46.03411477 73.74564964 47.05251157 76.4954861 48.0625 79.25 C48.35705078 80.02730469 48.65160156 80.80460937 48.95507812 81.60546875 C49.22900391 82.35957031 49.50292969 83.11367187 49.78515625 83.890625 C50.04176025 84.58188477 50.29836426 85.27314453 50.56274414 85.98535156 C51.08824342 88.40657996 50.97374871 89.72231132 50 92 C44.03944887 94.98027557 38.71949529 95.51590136 32.125 95.4375 C31.24312012 95.43065186 30.36124023 95.42380371 29.45263672 95.41674805 C20.00803326 95.18355874 12.68251317 92.84162062 6 86 C1.46932113 79.66287682 0.84599485 73.89193401 0.90234375 66.29296875 C0.9037587 65.56757401 0.90517365 64.84217926 0.90663147 64.09480286 C0.91220069 61.7923255 0.92474739 59.48994765 0.9375 57.1875 C0.94251898 55.62044412 0.94708119 54.0533867 0.95117188 52.48632812 C0.96216002 48.65751411 0.97940327 44.82877389 1 41 C-2.63 41 -6.26 41 -10 41 C-10.33 34.07 -10.66 27.14 -11 20 C-7.34649162 18.17324581 -2.94412788 19.54490832 1 20 C0.67 13.4 0.34 6.8 0 0 Z " fill="#FDFEFE" transform="translate(785,24)"/>
<path d="M0 0 C9.57 0 19.14 0 29 0 C29.15298607 12.76028743 29.30174571 25.52060459 29.4429636 38.28102779 C29.50870045 44.20553458 29.57632526 50.13000753 29.64819336 56.05444336 C29.71741905 61.76668092 29.7817788 67.47895408 29.84269524 73.19128609 C29.86686072 75.37590098 29.8928107 77.56049686 29.92053413 79.7450695 C29.95892192 82.79347632 29.99109185 85.84188772 30.02172852 88.89038086 C30.03467453 89.80315796 30.04762054 90.71593506 30.06095886 91.65637207 C30.07898082 93.77093554 30.04529762 95.88584494 30 98 C29.67 98.33 29.34 98.66 29 99 C19.43 99 9.86 99 0 99 C0 66.33 0 33.66 0 0 Z " fill="#FDFEFE" transform="translate(1473,19)"/>
<path d="M0 0 C9.24 0 18.48 0 28 0 C28.8564705 4.28235248 29.12663498 7.74341346 29.12939453 12.06933594 C29.13114685 12.76096329 29.13289917 13.45259064 29.13470459 14.16517639 C29.13908601 16.43826853 29.13619953 18.71128215 29.1328125 20.984375 C29.1334863 22.56667089 29.13445696 24.14896667 29.13571167 25.73126221 C29.13718335 29.0397643 29.13504996 32.34823934 29.13037109 35.65673828 C29.12465542 39.90623994 29.12796773 44.15567869 29.13394356 48.40517807 C29.13754757 51.66842121 29.13641165 54.9316493 29.13381577 58.19489288 C29.13314702 59.76265724 29.13397311 61.33042295 29.13629532 62.89818573 C29.13882124 65.08157511 29.13498302 67.2648606 29.12939453 69.44824219 C29.12859894 70.69224792 29.12780334 71.93625366 29.12698364 73.21795654 C29 76 29 76 28 77 C18.76 77 9.52 77 0 77 C0 51.59 0 26.18 0 0 Z " fill="#FEFEFE" transform="translate(623,41)"/>
<path d="M0 0 C5.62672096 5.25559681 9.40632536 11.66573495 10.1640625 19.41796875 C10.36270613 28.62179007 7.29999352 35.65160244 0.9609375 42.33984375 C-12.176477 53.81128178 -29.05285988 57.1171397 -46.0390625 56.33984375 C-54.83393429 55.74155315 -54.83393429 55.74155315 -59.0390625 54.33984375 C-61.47924265 55.33898589 -61.47924265 55.33898589 -64.07421875 56.90234375 C-65.04810547 57.45148438 -66.02199219 58.000625 -67.02539062 58.56640625 C-68.5480957 59.44425781 -68.5480957 59.44425781 -70.1015625 60.33984375 C-72.10917528 61.49285602 -74.12070783 62.63907914 -76.13671875 63.77734375 C-77.02883057 64.29167969 -77.92094238 64.80601563 -78.84008789 65.3359375 C-79.56574951 65.66722656 -80.29141113 65.99851562 -81.0390625 66.33984375 C-81.6990625 66.00984375 -82.3590625 65.67984375 -83.0390625 65.33984375 C-81.5707726 60.84125343 -80.07256862 56.37389753 -78.3515625 51.96484375 C-76.86884196 48.5122596 -76.86884196 48.5122596 -77.0390625 45.33984375 C-78.64804958 43.78207268 -78.64804958 43.78207268 -80.7265625 42.27734375 C-86.363344 37.54004866 -89.70047141 31.55686338 -90.9765625 24.27734375 C-91.12668108 14.81987332 -88.22867519 8.50998914 -82.0390625 1.33984375 C-60.42374538 -19.53172052 -22.6412922 -18.43400227 0 0 Z M-79.6015625 5.83984375 C-83.28169654 10.67813763 -85.79965454 16.23494071 -86.0390625 22.33984375 C-84.59297551 32.27531198 -78.85957199 38.47446163 -71.0390625 44.33984375 C-72.0290625 48.29984375 -73.0190625 52.25984375 -74.0390625 56.33984375 C-73.13285156 55.81132813 -72.22664063 55.2828125 -71.29296875 54.73828125 C-70.06326281 54.06241234 -68.83274958 53.38801079 -67.6015625 52.71484375 C-67.00923828 52.36421875 -66.41691406 52.01359375 -65.80664062 51.65234375 C-61.14322279 49.15853742 -58.36773315 49.33720971 -53.34008789 50.74951172 C-39.7511861 54.2357679 -22.34471622 51.30931656 -10.3515625 44.33984375 C-8.89942103 43.36122667 -7.45924748 42.36428549 -6.0390625 41.33984375 C-5.1109375 40.74171875 -4.1828125 40.14359375 -3.2265625 39.52734375 C1.39923413 34.90154712 5.08023694 28.28366267 5.2734375 21.71484375 C5.15490549 14.21499994 2.34933537 9.58183335 -2.6640625 4.15234375 C-13.10939192 -5.78536219 -27.71100284 -9.07626128 -41.72290039 -9.02807617 C-55.45035708 -8.63833765 -70.04715563 -4.55553781 -79.6015625 5.83984375 Z " fill="#E25D6C" transform="translate(211.0390625,53.66015625)"/>
<path d="M0 0 C3.75 0.25 3.75 0.25 6.375 1.875 C7.15875 2.32875 7.9425 2.7825 8.75 3.25 C11.18028072 2.58719617 12.9510972 2.0489028 14.75 0.25 C21.75540541 -0.33378378 21.75540541 -0.33378378 25.625 1.9375 C28.87416549 5.47335656 29.75 7.75071148 29.75 12.5625 C27.54213841 20.70398961 20.66483908 27.62858255 13.75 32.25 C10.78125 33.19140625 10.78125 33.19140625 7.75 33.25 C0.69796182 29.37997905 -5.67792069 22.72318141 -9.6875 15.75 C-10.4848118 12.206392 -10.18957894 9.75776137 -9.25 6.25 C-6.75 3.375 -6.75 3.375 -4.25 1.25 C-3.25 0.25 -3.25 0.25 0 0 Z " fill="#E85460" transform="translate(161.25,58.75)"/>
<path d="M0 0 C4.12007477 2.94291055 6.94552646 5.92151357 8.625 10.75 C8.625 16.45333011 6.86150064 20.37818344 3.25 24.75 C-1.52059822 28.2325367 -7.60844248 28.95245071 -13.375 28.875 C-16.650353 27.78665436 -18.86205641 26.20888864 -21.375 23.875 C-22.2 23.153125 -23.025 22.43125 -23.875 21.6875 C-26.13092605 17.45763866 -26.00991514 13.56717774 -25.375 8.875 C-23.64787818 4.69354716 -21.05392389 2.45024672 -17.375 -0.125 C-11.73816637 -2.00394454 -5.61662826 -1.87220942 0 0 Z " fill="#FDFEFE" transform="translate(646.375,6.125)"/>
<path d="M0 0 C0.99 0 1.98 0 3 0 C3 0.66 3 1.32 3 2 C3.99 2 4.98 2 6 2 C6 2.66 6 3.32 6 4 C6.61875 4.185625 7.2375 4.37125 7.875 4.5625 C10.47363886 6.32040276 10.98148466 7.92665634 11.69140625 10.9296875 C12.4553105 16.05461477 12.40937277 21.0051829 11 26 C10.01 26 9.02 26 8 26 C8 26.99 8 27.98 8 29 C7.34 29 6.68 29 6 29 C6 29.99 6 30.98 6 32 C5.34 32 4.68 32 4 32 C3.3125 30.375 3.3125 30.375 3 28 C3.474375 27.13375 3.94875 26.2675 4.4375 25.375 C6.80981031 20.25080974 7.12420555 15.08232883 5.16796875 9.71875 C4.18887723 7.75323293 3.12690223 5.8836541 2 4 C1.32402585 2.67136116 0.65484162 1.3391806 0 0 Z " fill="#DE5C69" transform="translate(209,58)"/>
<path d="M0 0 C0.33 0.66 0.66 1.32 1 2 C0.443125 2.03738281 -0.11375 2.07476562 -0.6875 2.11328125 C-4.72560637 2.46115866 -8.20358584 2.94370695 -11.9375 4.5625 C-16.57522176 6.49254178 -21.05301669 6.27370604 -26 6 C-25.34 5.01 -24.68 4.02 -24 3 C-23.34 3 -22.68 3 -22 3 C-22 2.34 -22 1.68 -22 1 C-14.61369711 -0.72870919 -7.49948204 -1.71574866 0 0 Z " fill="#E16073" transform="translate(175,41)"/>
<path d="M0 0 C7.93396732 -0.24923458 15.2441657 0.29005228 23 2 C23 2.33 23 2.66 23 3 C20.36 3 17.72 3 15 3 C15 3.66 15 4.32 15 5 C17.64 5.33 20.28 5.66 23 6 C23 6.33 23 6.66 23 7 C21.783125 6.855625 20.56625 6.71125 19.3125 6.5625 C13.2212315 5.88136774 7.11235086 5.44401931 1 5 C1.33 4.34 1.66 3.68 2 3 C4.64860427 2.40644386 7.29197322 2.25790731 10 2 C6.7 1.67 3.4 1.34 0 1 C0 0.67 0 0.34 0 0 Z " fill="#D56571" transform="translate(165,40)"/>
<path d="M0 0 C6.69853073 -0.49618746 12.08402561 0.71212576 18 4 C18.99 5.485 18.99 5.485 20 7 C14.26340816 6.63030853 10.1164381 5.79078442 5 3 C2.26427415 2.30092586 2.26427415 2.30092586 0 2 C0 1.34 0 0.68 0 0 Z " fill="#EE5666" transform="translate(180,43)"/>
<path d="M0 0 C3.33388318 0.16951948 4.94441987 0.43192871 7.6875 2.1875 C7.3575 2.8475 7.0275 3.5075 6.6875 4.1875 C6.0275 3.8575 5.3675 3.5275 4.6875 3.1875 C2.97516312 3.2745204 1.26574594 3.42847162 -0.4375 3.625 C-1.34757813 3.72683594 -2.25765625 3.82867187 -3.1953125 3.93359375 C-4.24332031 4.05927734 -4.24332031 4.05927734 -5.3125 4.1875 C-5.3125 5.1775 -5.3125 6.1675 -5.3125 7.1875 C-5.93849617 8.86986471 -6.60002268 10.5398962 -7.3125 12.1875 C-8.3025 12.1875 -9.2925 12.1875 -10.3125 12.1875 C-9.9382368 6.82306087 -8.3165457 4.69103999 -4.3125 1.1875 C-3.3125 0.1875 -3.3125 0.1875 0 0 Z " fill="#D25E71" transform="translate(161.3125,58.8125)"/>
<path d="M0 0 C0.33 0 0.66 0 1 0 C1.06058594 0.75925781 1.12117187 1.51851563 1.18359375 2.30078125 C1.26738281 3.29464844 1.35117188 4.28851563 1.4375 5.3125 C1.51871094 6.29863281 1.59992188 7.28476563 1.68359375 8.30078125 C1.91812559 11.09375599 1.91812559 11.09375599 3 14 C2.01 14 1.02 14 0 14 C0 14.99 0 15.98 0 17 C-0.66 17 -1.32 17 -2 17 C-2 17.99 -2 18.98 -2 20 C-2.66 20 -3.32 20 -4 20 C-4.93065133 17.39417629 -5.14917407 16.35801776 -4.0625 13.75 C-3.711875 13.1725 -3.36125 12.595 -3 12 C-2.01 12 -1.02 12 0 12 C0 8.04 0 4.08 0 0 Z " fill="#E64F5A" transform="translate(217,70)"/>
<path d="M0 0 C-0.99 0.66 -1.98 1.32 -3 2 C-2.01 2.66 -1.02 3.32 0 4 C-4.95 5.485 -4.95 5.485 -10 7 C-9.34 6.01 -8.68 5.02 -8 4 C-8.99 3.34 -9.98 2.68 -11 2 C-3.57142857 -1.57142857 -3.57142857 -1.57142857 0 0 Z " fill="#DB6976" transform="translate(153,44)"/>
<path d="M0 0 C1.81325551 0.11351517 3.62563357 0.24112961 5.4375 0.375 C6.95150391 0.47941406 6.95150391 0.47941406 8.49609375 0.5859375 C9.73552734 0.79089844 9.73552734 0.79089844 11 1 C11.33 1.66 11.66 2.32 12 3 C11.04287109 3.09087891 11.04287109 3.09087891 10.06640625 3.18359375 C8.82697266 3.30927734 8.82697266 3.30927734 7.5625 3.4375 C6.32693359 3.55931641 6.32693359 3.55931641 5.06640625 3.68359375 C3.01337975 3.78930815 3.01337975 3.78930815 2 5 C-0.33297433 5.04092937 -2.66705225 5.04241723 -5 5 C-4.67 4.34 -4.34 3.68 -4 3 C-1.9375 2.375 -1.9375 2.375 0 2 C0 1.34 0 0.68 0 0 Z " fill="#F75265" transform="translate(164,40)"/>
<path d="M0 0 C5.1358421 1.87655769 7.84442256 3.32974539 11 8 C10.01 8.495 10.01 8.495 9 9 C9 8.34 9 7.68 9 7 C8.01 7 7.02 7 6 7 C6 6.34 6 5.68 6 5 C5.071875 5.309375 5.071875 5.309375 4.125 5.625 C3.42375 5.74875 2.7225 5.8725 2 6 C1.34 5.34 0.68 4.68 0 4 C0 2.68 0 1.36 0 0 Z " fill="#EA5772" transform="translate(206,53)"/>
<path d="M0 0 C1.22589844 0.29197266 1.22589844 0.29197266 2.4765625 0.58984375 C3.41628906 0.82380859 3.41628906 0.82380859 4.375 1.0625 C4.375 1.3925 4.375 1.7225 4.375 2.0625 C1.075 2.0625 -2.225 2.0625 -5.625 2.0625 C-5.955 2.7225 -6.285 3.3825 -6.625 4.0625 C-5.635 4.3925 -4.645 4.7225 -3.625 5.0625 C-9.375 8.0625 -9.375 8.0625 -11.625 8.0625 C-11.625 7.4025 -11.625 6.7425 -11.625 6.0625 C-10.635 6.0625 -9.645 6.0625 -8.625 6.0625 C-8.33625 5.093125 -8.0475 4.12375 -7.75 3.125 C-6.01167021 -1.60711999 -4.43175285 -1.07628284 0 0 Z " fill="#DF6674" transform="translate(155.625,102.9375)"/>
<path d="M0 0 C3.37462715 0.54723683 5.08235 1.0549 8 3 C8.1875 5.625 8.1875 5.625 8 8 C6.66102417 7.04956626 5.32894573 6.08940853 4 5.125 C3.2575 4.59132813 2.515 4.05765625 1.75 3.5078125 C1.1725 3.01023437 0.595 2.51265625 0 2 C0 1.34 0 0.68 0 0 Z " fill="#ED5668" transform="translate(131,93)"/>
<path d="M0 0 C0.66 0.33 1.32 0.66 2 1 C0.515 2.485 0.515 2.485 -1 4 C0.32 4.33 1.64 4.66 3 5 C-2.2734375 8.22265625 -2.2734375 8.22265625 -4 9 C-4.66 8.67 -5.32 8.34 -6 8 C-4.73058503 4.08597051 -3.48832306 2.20927127 0 0 Z " fill="#DC6370" transform="translate(137,49)"/>
<path d="M0 0 C1.95825873 -0.02694851 3.91662226 -0.04637218 5.875 -0.0625 C6.96554688 -0.07410156 8.05609375 -0.08570313 9.1796875 -0.09765625 C12 0 12 0 14 1 C13.67 1.99 13.34 2.98 13 4 C7.06 4.495 7.06 4.495 1 5 C1.33 4.34 1.66 3.68 2 3 C4.64860427 2.40644386 7.29197322 2.25790731 10 2 C6.7 1.67 3.4 1.34 0 1 C0 0.67 0 0.34 0 0 Z " fill="#E4616C" transform="translate(165,40)"/>
<path d="M0 0 C0.66 0 1.32 0 2 0 C2.91297308 4.97063121 2.91297308 9.02936879 2 14 C1.34 13.67 0.68 13.34 0 13 C0 8.71 0 4.42 0 0 Z " fill="#F34D58" transform="translate(123,70)"/>
<path d="M0 0 C0.33 0.99 0.66 1.98 1 3 C0.67 3.66 0.34 4.32 0 5 C-0.99 5 -1.98 5 -3 5 C-3 5.66 -3 6.32 -3 7 C-4.32 7 -5.64 7 -7 7 C-7 6.01 -7 5.02 -7 4 C-4.69 2.68 -2.38 1.36 0 0 Z " fill="#EB5A6A" transform="translate(147,104)"/>
<path d="M0 0 C1.61949011 2.57213134 2.04408751 3.67669159 1.625 6.75 C1.41875 7.4925 1.2125 8.235 1 9 C0.01 9.33 -0.98 9.66 -2 10 C-3.39195915 5.82412255 -1.82323219 3.86525224 0 0 Z " fill="#D66479" transform="translate(131,110)"/>
<path d="M0 0 C0.99 0.33 1.98 0.66 3 1 C3.33 2.98 3.66 4.96 4 7 C3.01 7.33 2.02 7.66 1 8 C0.87625 7.195625 0.7525 6.39125 0.625 5.5625 C0.315625 4.2940625 0.315625 4.2940625 0 3 C-0.66 2.67 -1.32 2.34 -2 2 C-1.34 2 -0.68 2 0 2 C0 1.34 0 0.68 0 0 Z " fill="#EF4B5A" transform="translate(183,59)"/>
<path d="M0 0 C0.103125 0.556875 0.20625 1.11375 0.3125 1.6875 C1.13133577 4.44176578 2.45853781 6.58727657 4 9 C0.18315774 7.44499019 -2.19195732 4.96404505 -5 2 C-4.01 2.33 -3.02 2.66 -2 3 C-1.34 2.01 -0.68 1.02 0 0 Z " fill="#D45C69" transform="translate(164,81)"/>
<path d="M0 0 C0 0.99 0 1.98 0 3 C-1.98 3.33 -3.96 3.66 -6 4 C-6.33 3.01 -6.66 2.02 -7 1 C-4.50935112 0.31292445 -2.62113708 0 0 0 Z " fill="#F35664" transform="translate(192,103)"/>
<path d="M0 0 C0.66 0.33 1.32 0.66 2 1 C1.01 4.3 0.02 7.6 -1 11 C-1.33 11 -1.66 11 -2 11 C-2.33 9.02 -2.66 7.04 -3 5 C-2.01 4.67 -1.02 4.34 0 4 C0 2.68 0 1.36 0 0 Z " fill="#DF636F" transform="translate(139,97)"/>
<path d="M0 0 C0.66 0.99 1.32 1.98 2 3 C1.01 4.32 0.02 5.64 -1 7 C-3 4 -3 4 -3 1 C-2.01 0.67 -1.02 0.34 0 0 Z " fill="#E15766" transform="translate(155,71)"/>
<path d="M0 0 C2.25 0.25 2.25 0.25 4 1 C4 1.66 4 2.32 4 3 C1.36 3.33 -1.28 3.66 -4 4 C-2.25 1.9375 -2.25 1.9375 0 0 Z " fill="#ED5965" transform="translate(153,43)"/>
<path d="M0 0 C0.99 0 1.98 0 3 0 C4.5625 2.3125 4.5625 2.3125 6 5 C6.99 6.485 6.99 6.485 8 8 C4.63820226 6.55922954 2.40843732 4.75249979 0 2 C0 1.34 0 0.68 0 0 Z " fill="#CA5061" transform="translate(126,90)"/>
<path d="M0 0 C0.99 0.33 1.98 0.66 3 1 C3 1.99 3 2.98 3 4 C2.34 4 1.68 4 1 4 C1 4.99 1 5.98 1 7 C0.34 7 -0.32 7 -1 7 C-0.67 4.69 -0.34 2.38 0 0 Z " fill="#F05462" transform="translate(125,61)"/>
<path d="M0 0 C1.65 0 3.3 0 5 0 C3.71937515 1.7074998 2.38232443 3.37373596 1 5 C0.34 5 -0.32 5 -1 5 C-0.67 3.35 -0.34 1.7 0 0 Z " fill="#F3F5F8" transform="translate(24,19)"/>
</svg>
